<svg width="16" height="16" viewBox="0 0 16 16" fill="none" xmlns="http://www.w3.org/2000/svg">
<g clip-path="url(#clip0_266_2)">
<path fill-rule="evenodd" clip-rule="evenodd" d="M9.4 9.1L10.3 8.2L15.5 13.4C16.1 14 16.1 14.9 15.5 15.5C14.9 16.1 14 16.1 13.4 15.5L9.1 11.2L10.3 10L9.4 9.1ZM13.4 14.2C13.4 14.7 13.8 15 14.2 15C14.7 15 15 14.7 15 14.2C15 13.7 14.7 13.4 14.2 13.4C13.7 13.4 13.4 13.8 13.4 14.2ZM4.5 7.4L3.6 8C1.6 7.7 0 6.1 0 4C0 3.4 0.1 2.9 0.3 2.4L3.2 5.3L5.3 3.2L2.4 0.3C2.9 0.1 3.4 0 4 0C6.2 0 8 1.8 8 4C8 4.6 7.9 5.1 7.7 5.6L7.8 5.7L6.9 6.6L6 5.7L4.5 7.4ZM8.8998 10.0001L7.9998 10.8001C7.9998 10.8001 7.2998 10.1001 6.3998 11.0001C6.26047 11.1394 6.23034 11.3394 6.19107 11.6001C6.1176 12.0878 6.01214 12.7878 5.0998 13.7001L2.9998 15.8001C2.9998 15.8001 1.9998 16.4001 0.799805 15.2001C-0.400195 14.0001 0.199805 13.0001 0.199805 13.0001L2.2998 10.9001C3.25077 9.94913 3.92038 9.84221 4.41057 9.76394C4.69359 9.71875 4.91679 9.68311 5.0998 9.5001C5.9998 8.6001 5.1998 8.0001 5.1998 8.0001L5.9998 7.1001L6.8998 8.0001L12.4998 2.3001L12.9998 1.1001L15.2998 0.100098L15.9998 0.800098L14.8998 3.0001L13.6998 3.4001L7.9998 9.1001L8.8998 10.0001ZM5.5998 11.1001L4.8998 10.4001L1.0998 14.2001L1.7998 14.9001L5.5998 11.1001Z" fill="#4ECB71"/>
</g>
<defs>
<clipPath id="clip0_266_2">
<rect width="16" height="16" fill="white"/>
</clipPath>
</defs>
</svg>
